<svg width="46" height="45" viewBox="0 0 46 45" fill="none" xmlns="http://www.w3.org/2000/svg">
<path fill-rule="evenodd" clip-rule="evenodd" d="M30.1036 6.53756H27.3457V2.93677L23.5705 12.8571H20.8125L25.7056 0.000732422H30.1028V6.53825L30.1036 6.53756Z" fill="#d51709"/>
<path fill-rule="evenodd" clip-rule="evenodd" d="M15.8972 6.31955H18.6544V9.92108L22.4296 0H25.1876L20.2945 12.8564H15.8965V6.31886L15.8972 6.31955Z" fill="#d51709"/>
<path fill-rule="evenodd" clip-rule="evenodd" d="M40.3504 20.6817L38.9714 18.2887L42.084 16.4884L31.6212 18.173L30.2422 15.7801L43.8019 13.5973L46.0005 17.4126L40.3494 20.6814L40.3504 20.6817Z" fill="#d51709"/>
<path fill-rule="evenodd" clip-rule="evenodd" d="M33.4359 8.24752L34.8146 10.6398L31.7014 12.4405L42.1649 10.7556L43.5438 13.1485L29.9841 15.3313L27.7852 11.5153L33.4363 8.24646L33.4359 8.24752Z" fill="#d51709"/>
<path fill-rule="evenodd" clip-rule="evenodd" d="M33.2468 36.6441L34.6257 34.2512L37.7382 36.0516L31.0508 27.8158L32.4297 25.423L41.0963 36.0966L38.8976 39.9119L33.2468 36.6441Z" fill="#d51709"/>
<path fill-rule="evenodd" clip-rule="evenodd" d="M40.5366 24.4279L39.158 26.8201L36.0448 25.0194L42.733 33.2555L41.3541 35.6484L32.6875 24.9747L34.8865 21.1588L40.5366 24.4279Z" fill="#d51709"/>
<path fill-rule="evenodd" clip-rule="evenodd" d="M15.8965 38.4624H18.6544V42.0632L22.4296 32.1428H25.1876L20.2945 44.9993H15.8972V38.4617L15.8965 38.4624Z" fill="#d51709"/>
<path fill-rule="evenodd" clip-rule="evenodd" d="M30.1028 38.6804H27.3457V35.0788L23.5705 45H20.8125L25.7056 32.1436H30.1036V38.6811L30.1028 38.6804Z" fill="#d51709"/>
<path fill-rule="evenodd" clip-rule="evenodd" d="M5.65004 24.3182L7.02903 26.7112L3.91651 28.5115L14.3793 26.8269L15.7582 29.2199L2.19862 31.4025L0 27.5872L5.6511 24.3185L5.65004 24.3182Z" fill="#d51709"/>
<path fill-rule="evenodd" clip-rule="evenodd" d="M12.5648 36.7525L11.1862 34.3602L14.2993 32.5594L3.83597 34.2444L2.45703 31.8514L16.0166 29.6687L18.2156 33.4846L12.5645 36.7535L12.5648 36.7525Z" fill="#d51709"/>
<path fill-rule="evenodd" clip-rule="evenodd" d="M12.7518 8.35579L11.3728 10.7487L8.26029 8.94832L14.9478 17.1841L13.5689 19.577L4.90234 8.90333L7.10098 5.08801L12.752 8.35685L12.7518 8.35579Z" fill="#d51709"/>
<path fill-rule="evenodd" clip-rule="evenodd" d="M5.46206 20.5721L6.84065 18.1799L9.95382 19.9806L3.26562 11.7446L4.64462 9.35156L13.3111 20.0252L11.1121 23.8412L5.461 20.5724L5.46206 20.5721Z" fill="#d51709"/>
</svg>
